<svg id="Layer_2" data-name="Layer 2" xmlns="http://www.w3.org/2000/svg" viewBox="0 0 134.38 174.32"><title>пыкс2</title><path d="M368.58,501.17h-5.87l0-174.17h5.83Z" transform="translate(-234.21 -327)" style="fill:#9f9f9f"/><rect x="298.46" y="431.2" width="5.88" height="134.38" transform="translate(-431.2 472.78) rotate(-90)" style="fill:#9f9f9f"/><rect x="11.88" y="150.28" width="110.5" height="12.31" style="fill:#9f9f9f"/><rect x="11.94" y="126.75" width="110.5" height="17.63" style="fill:#9f9f9f"/><rect x="11.94" y="94.5" width="110.5" height="26.25" style="fill:#9f9f9f"/><rect x="11.94" y="56.67" width="110.5" height="31.83" style="fill:#9f9f9f"/><path d="M356.68,377.5H246.11V349.16A53.59,53.59,0,0,0,258,351.33c22.58,1.52,35.2-12.4,56.33-19.33,9.45-3.1,23.41-5.73,42.34-2.84Z" transform="translate(-234.21 -327)" style="fill:#9f9f9f"/><path d="M240.08,501.17h-5.87l0-174.17h5.83Z" transform="translate(-234.21 -327)" style="fill:#9f9f9f"/></svg>