<svg id="Layer_2" data-name="Layer 2" xmlns="http://www.w3.org/2000/svg" viewBox="0 0 139.58 174.32"><path d="M240.08,350.25V501.17h-5.88V351.31l5.88-1.06" transform="translate(-229 -327)" style="fill:#9c9eab"/><polygon points="139.58 174.17 133.71 174.17 133.71 1.06 139.58 0 139.58 174.17" style="fill:#9c9eab"/><rect x="298.46" y="431.2" width="5.88" height="134.38" transform="translate(-425.99 472.78) rotate(-90)" style="fill:#9c9eab"/><rect x="17.08" y="150.28" width="110.5" height="12.31" style="fill:#9c9eab"/><rect x="17.15" y="126.75" width="110.5" height="17.63" style="fill:#9c9eab"/><rect x="17.15" y="94.5" width="110.5" height="26.25" style="fill:#9c9eab"/><rect x="17.15" y="56.67" width="110.5" height="31.83" style="fill:#9c9eab"/><polygon points="127.68 50.5 17.11 50.5 17.11 22.16 127.68 2.15 127.68 50.5" style="fill:#9c9eab"/><polygon points="0 25.25 133.71 1.06 139.58 0 0 25.25" style="fill:#fcfcfc"/></svg>